solid Untitled-599d814f
facet normal -1.0 0.0 0.0
  outer loop
    vertex 0.0 59.99999999999999 29.999999999999996
    vertex 0.0 0.0 0.0
    vertex 0.0 0.0 29.999999999999996
  endloop
endfacet
facet normal 0.0 1.0 0.0
  outer loop
    vertex 59.99999999999999 59.99999999999999 29.999999999999996
    vertex 59.99999999999999 59.99999999999999 0.0
    vertex 0.0 59.99999999999999 29.999999999999996
  endloop
endfacet
facet normal 0.0 0.0 1.0
  outer loop
    vertex 59.99999999999999 0.0 29.999999999999996
    vertex 0.0 59.99999999999999 29.999999999999996
    vertex 0.0 0.0 29.999999999999996
  endloop
endfacet
facet normal 0.0 0.0 -1.0
  outer loop
    vertex 59.99999999999999 59.99999999999999 0.0
    vertex 0.0 0.0 0.0
    vertex 0.0 59.99999999999999 0.0
  endloop
endfacet
facet normal 0.0 0.0 -1.0
  outer loop
    vertex 0.0 0.0 0.0
    vertex 59.99999999999999 59.99999999999999 0.0
    vertex 59.99999999999999 0.0 0.0
  endloop
endfacet
facet normal 1.0 0.0 0.0
  outer loop
    vertex 59.99999999999999 59.99999999999999 0.0
    vertex 59.99999999999999 0.0 29.999999999999996
    vertex 59.99999999999999 0.0 0.0
  endloop
endfacet
facet normal -1.0 0.0 0.0
  outer loop
    vertex 0.0 59.99999999999999 0.0
    vertex 0.0 0.0 0.0
    vertex 0.0 59.99999999999999 29.999999999999996
  endloop
endfacet
facet normal 0.0 1.0 0.0
  outer loop
    vertex 0.0 59.99999999999999 29.999999999999996
    vertex 59.99999999999999 59.99999999999999 0.0
    vertex 0.0 59.99999999999999 0.0
  endloop
endfacet
facet normal 1.0 0.0 0.0
  outer loop
    vertex 59.99999999999999 59.99999999999999 29.999999999999996
    vertex 59.99999999999999 0.0 29.999999999999996
    vertex 59.99999999999999 59.99999999999999 0.0
  endloop
endfacet
facet normal 0.0 0.0 1.0
  outer loop
    vertex 59.99999999999999 59.99999999999999 29.999999999999996
    vertex 0.0 59.99999999999999 29.999999999999996
    vertex 59.99999999999999 0.0 29.999999999999996
  endloop
endfacet
facet normal 0.0 1.0 0.0
  outer loop
    vertex 59.99999999999999 0.0 29.999999999999996
    vertex 0.0 0.0 0.0
    vertex 0.0 0.0 29.999999999999996
  endloop
endfacet
facet normal 0.0 1.0 0.0
  outer loop
    vertex 59.99999999999999 0.0 29.999999999999996
    vertex 59.99999999999999 0.0 0.0
    vertex 0.0 0.0 0.0
  endloop
endfacet
endsolid Untitled-599d814f
