solid Untitled-599c01b0
facet normal 0.0 -1.0 0.0
  outer loop
    vertex 18.535533905932734 -1.9999999999999998 18.535533905932734
    vertex 14.999999999999998 -1.9999999999999998 14.999999999999998
    vertex 18.535533905932734 -1.9999999999999998 11.46446609406726
  endloop
endfacet
facet normal 0.0 -1.0 0.0
  outer loop
    vertex 29.999999999999996 0.0 0.0
    vertex 18.535533905932734 0.0 11.46446609406726
    vertex 0.0 0.0 0.0
  endloop
endfacet
facet normal 0.0 -1.0 0.0
  outer loop
    vertex 18.535533905932734 0.0 11.46446609406726
    vertex 29.999999999999996 0.0 0.0
    vertex 29.999999999999996 0.0 29.999999999999996
  endloop
endfacet
facet normal 0.0 -1.0 0.0
  outer loop
    vertex 0.0 0.0 0.0
    vertex 18.535533905932734 0.0 11.46446609406726
    vertex 11.46446609406726 0.0 11.464466094067259
  endloop
endfacet
facet normal 0.0 -1.0 0.0
  outer loop
    vertex 18.535533905932734 0.0 11.46446609406726
    vertex 29.999999999999996 0.0 29.999999999999996
    vertex 18.535533905932734 0.0 18.535533905932734
  endloop
endfacet
facet normal 0.0 -1.0 0.0
  outer loop
    vertex 29.999999999999996 0.0 29.999999999999996
    vertex 11.46446609406726 0.0 18.535533905932734
    vertex 18.535533905932734 0.0 18.535533905932734
  endloop
endfacet
facet normal 0.0 -1.0 0.0
  outer loop
    vertex 11.46446609406726 0.0 11.464466094067259
    vertex 0.0 0.0 29.999999999999996
    vertex 0.0 0.0 0.0
  endloop
endfacet
facet normal 0.0 -1.0 0.0
  outer loop
    vertex 0.0 0.0 29.999999999999996
    vertex 11.46446609406726 0.0 11.464466094067259
    vertex 11.46446609406726 0.0 18.535533905932734
  endloop
endfacet
facet normal 0.0 -1.0 0.0
  outer loop
    vertex 0.0 0.0 29.999999999999996
    vertex 11.46446609406726 0.0 18.535533905932734
    vertex 29.999999999999996 0.0 29.999999999999996
  endloop
endfacet
facet normal 0.0 -1.0 0.0
  outer loop
    vertex 14.999999999999998 -1.9999999999999998 14.999999999999998
    vertex 11.46446609406726 -1.9999999999999998 11.464466094067259
    vertex 18.535533905932734 -1.9999999999999998 11.46446609406726
  endloop
endfacet
facet normal 1.0 0.0 0.0
  outer loop
    vertex 18.535533905932734 0.0 11.46446609406726
    vertex 18.535533905932734 -1.9999999999999998 18.535533905932734
    vertex 18.535533905932734 -1.9999999999999998 11.46446609406726
  endloop
endfacet
facet normal 1.0 0.0 0.0
  outer loop
    vertex 18.535533905932734 -1.9999999999999998 18.535533905932734
    vertex 18.535533905932734 0.0 11.46446609406726
    vertex 18.535533905932734 0.0 18.535533905932734
  endloop
endfacet
facet normal 1.9940174225283938e-16 0.0 -1.0
  outer loop
    vertex 18.535533905932734 0.0 11.46446609406726
    vertex 11.46446609406726 -1.9999999999999998 11.464466094067259
    vertex 11.46446609406726 0.0 11.464466094067259
  endloop
endfacet
facet normal 1.9940174225283938e-16 0.0 -1.0
  outer loop
    vertex 11.46446609406726 -1.9999999999999998 11.464466094067259
    vertex 18.535533905932734 0.0 11.46446609406726
    vertex 18.535533905932734 -1.9999999999999998 11.46446609406726
  endloop
endfacet
facet normal 0.0 -1.0 0.0
  outer loop
    vertex 11.46446609406726 -1.9999999999999998 18.535533905932734
    vertex 11.46446609406726 -1.9999999999999998 11.464466094067259
    vertex 14.999999999999998 -1.9999999999999998 14.999999999999998
  endloop
endfacet
facet normal -1.0 0.0 0.0
  outer loop
    vertex 11.46446609406726 0.0 18.535533905932734
    vertex 11.46446609406726 -1.9999999999999998 11.464466094067259
    vertex 11.46446609406726 -1.9999999999999998 18.535533905932734
  endloop
endfacet
facet normal -1.0 0.0 0.0
  outer loop
    vertex 11.46446609406726 -1.9999999999999998 11.464466094067259
    vertex 11.46446609406726 0.0 18.535533905932734
    vertex 11.46446609406726 0.0 11.464466094067259
  endloop
endfacet
facet normal 0.0 -1.0 0.0
  outer loop
    vertex 11.46446609406726 -1.9999999999999998 18.535533905932734
    vertex 14.999999999999998 -1.9999999999999998 14.999999999999998
    vertex 18.535533905932734 -1.9999999999999998 18.535533905932734
  endloop
endfacet
facet normal 0.0 0.0 1.0
  outer loop
    vertex 29.999999999999996 29.999999999999996 29.999999999999996
    vertex 0.0 29.999999999999996 29.999999999999996
    vertex 29.999999999999996 0.0 29.999999999999996
  endloop
endfacet
facet normal 0.0 0.0 -1.0
  outer loop
    vertex 29.999999999999996 0.0 0.0
    vertex 0.0 0.0 0.0
    vertex 29.999999999999996 29.999999999999996 0.0
  endloop
endfacet
facet normal 0.0 0.0 1.0
  outer loop
    vertex 29.999999999999996 0.0 29.999999999999996
    vertex 0.0 29.999999999999996 29.999999999999996
    vertex 0.0 0.0 29.999999999999996
  endloop
endfacet
facet normal 0.0 0.0 1.0
  outer loop
    vertex 18.535533905932734 -1.9999999999999998 18.535533905932734
    vertex 11.46446609406726 0.0 18.535533905932734
    vertex 11.46446609406726 -1.9999999999999998 18.535533905932734
  endloop
endfacet
facet normal 0.0 0.0 1.0
  outer loop
    vertex 11.46446609406726 0.0 18.535533905932734
    vertex 18.535533905932734 -1.9999999999999998 18.535533905932734
    vertex 18.535533905932734 0.0 18.535533905932734
  endloop
endfacet
facet normal 0.0 1.0 0.0
  outer loop
    vertex 29.999999999999996 29.999999999999996 29.999999999999996
    vertex 29.999999999999996 29.999999999999996 0.0
    vertex 0.0 29.999999999999996 29.999999999999996
  endloop
endfacet
facet normal 1.0 0.0 0.0
  outer loop
    vertex 29.999999999999996 29.999999999999996 0.0
    vertex 29.999999999999996 0.0 29.999999999999996
    vertex 29.999999999999996 0.0 0.0
  endloop
endfacet
facet normal -1.0 0.0 0.0
  outer loop
    vertex 0.0 29.999999999999996 0.0
    vertex 0.0 0.0 0.0
    vertex 0.0 29.999999999999996 29.999999999999996
  endloop
endfacet
facet normal -1.0 0.0 0.0
  outer loop
    vertex 0.0 29.999999999999996 29.999999999999996
    vertex 0.0 0.0 0.0
    vertex 0.0 0.0 29.999999999999996
  endloop
endfacet
facet normal 0.0 1.0 0.0
  outer loop
    vertex 0.0 29.999999999999996 29.999999999999996
    vertex 29.999999999999996 29.999999999999996 0.0
    vertex 0.0 29.999999999999996 0.0
  endloop
endfacet
facet normal 1.0 0.0 0.0
  outer loop
    vertex 29.999999999999996 29.999999999999996 29.999999999999996
    vertex 29.999999999999996 0.0 29.999999999999996
    vertex 29.999999999999996 29.999999999999996 0.0
  endloop
endfacet
facet normal 0.0 0.0 -1.0
  outer loop
    vertex 29.999999999999996 29.999999999999996 0.0
    vertex 0.0 0.0 0.0
    vertex 0.0 29.999999999999996 0.0
  endloop
endfacet
endsolid Untitled-599c01b0
